# xmcd
#
# Track frame offsets:
#	150
#	13816
#	26701
#	40727
#	62280
#	78785
#	92258
#	112085
#	121114
#	143264
#
# Disc length: 2018 seconds
#
# Revision: 0
# Processed by: cddbd v1.5.1PL0 Copyright (c) Steve Scherf et al.
# Submitted via: dBpowerAMP V4.0
#
DISCID=6907e00a
DTITLE=Paul filipowicz - Midnight at the Nairobi Room
DYEAR=1900
DGENRE=Blues
TTITLE0=Switchyard
TTITLE1=Lookin' Back
TTITLE2=Midnight at the Nairobi Room
TTITLE3=Devil Boogie
TTITLE4=Trail Dragger
TTITLE5=Gamblin' Woman
TTITLE6=Raining in My Hart
TTITLE7=Junk in the Trunk
TTITLE8=Most Dogs
TTITLE9=Squad Car Boogie
EXTD=
EXTT0=
EXTT1=
EXTT2=
EXTT3=
EXTT4=
EXTT5=
EXTT6=
EXTT7=
EXTT8=
EXTT9=
PLAYORDER=
